# xmcd
#
# Track frame offsets:
#	150
#	20603
#	49819
#	76673
#	141751
#	179439
#
# Disc length: 2975 seconds
# Revision: 0
# Processed by: cddbd v1.5.2PL0 Copyright (c) Steve Scherf et al.
# Submitted via: dBpowerAMP V12.0
#
DISCID=460b9d06
DTITLE=Larry Miller - Live and Outlawed [CD2]
DYEAR=2013
DGENRE=Blues
TTITLE0=Outlaw Blues
TTITLE1=Missy Mango
TTITLE2=Mad Dog
TTITLE3=Just As Blue As It Gets
TTITLE4=Calling All The Angels
TTITLE5=Backstabber Blues
EXTD=
EXTT0=
EXTT1=
EXTT2=
EXTT3=
EXTT4=
EXTT5=
PLAYORDER=
